<svg width="428" height="447" viewBox="0 0 428 447" fill="none" xmlns="http://www.w3.org/2000/svg">
<mask id="path-1-inside-1_624_462" fill="white">
<path d="M49.5 149C39.7165 149 30.0288 147.073 20.9901 143.329C11.9513 139.585 3.73851 134.097 -3.17946 127.179C-10.0974 120.261 -15.5851 112.049 -19.329 103.01C-23.073 93.9712 -25 84.2835 -25 74.5C-25 64.7165 -23.073 55.0288 -19.329 45.9901C-15.585 36.9513 -10.0974 28.7385 -3.17945 21.8205C3.73852 14.9026 11.9513 9.41495 20.9901 5.67097C30.0289 1.927 39.7165 -1.28295e-06 49.5 0L49.5 149Z"/>
<path d="M59.5 0C69.2835 1.16667e-07 78.9712 1.927 88.0099 5.67098C97.0487 9.41495 105.262 14.9026 112.179 21.8205C119.097 28.7385 124.585 36.9513 128.329 45.9901C132.073 55.0288 134 64.7165 134 74.5C134 84.2835 132.073 93.9712 128.329 103.01C124.585 112.049 119.097 120.261 112.179 127.179C105.262 134.097 97.0487 139.585 88.0099 143.329C78.9712 147.073 69.2835 149 59.5 149L59.5 0Z"/>
</mask>
<path d="M49.5 149V149.5H50V149H49.5ZM49.5 0L50 2.56026e-08V-0.5L49.5 -0.5V0ZM59.5 0V-0.5H59V-5.12035e-08L59.5 0ZM134 74.5H134.5H134ZM59.5 149H59V149.5H59.5V149ZM49.5 148.5C39.7822 148.5 30.1595 146.586 21.1814 142.867L20.7987 143.791C29.8982 147.56 39.6509 149.5 49.5 149.5V148.5ZM21.1814 142.867C12.2033 139.148 4.04563 133.697 -2.8259 126.826L-3.53301 127.533C3.43138 134.497 11.6993 140.022 20.7987 143.791L21.1814 142.867ZM-2.8259 126.826C-9.69744 119.954 -15.1482 111.797 -18.8671 102.819L-19.791 103.201C-16.0219 112.301 -10.4974 120.569 -3.53301 127.533L-2.8259 126.826ZM-18.8671 102.819C-22.5859 93.8405 -24.5 84.2178 -24.5 74.5H-25.5C-25.5 84.3491 -23.5601 94.1018 -19.791 103.201L-18.8671 102.819ZM-24.5 74.5C-24.5 64.7822 -22.5859 55.1595 -18.8671 46.1814L-19.791 45.7987C-23.5601 54.8982 -25.5 64.6509 -25.5 74.5H-24.5ZM-18.8671 46.1814C-15.1482 37.2033 -9.69743 29.0456 -2.8259 22.1741L-3.533 21.467C-10.4974 28.4314 -16.0219 36.6993 -19.791 45.7987L-18.8671 46.1814ZM-2.8259 22.1741C4.04564 15.3026 12.2033 9.85176 21.1814 6.13291L20.7988 5.20903C11.6993 8.97813 3.43139 14.5026 -3.533 21.467L-2.8259 22.1741ZM21.1814 6.13291C30.1595 2.41406 39.7822 0.499999 49.5 0.5V-0.5C39.6509 -0.500001 29.8982 1.43993 20.7988 5.20903L21.1814 6.13291ZM49 -2.56014e-08L49 149H50L50 2.56026e-08L49 -2.56014e-08ZM59.5 0.5C69.2178 0.5 78.8405 2.41407 87.8186 6.13292L88.2013 5.20904C79.1019 1.43993 69.3492 -0.5 59.5 -0.5V0.5ZM87.8186 6.13292C96.7967 9.85176 104.954 15.3026 111.826 22.1741L112.533 21.467C105.569 14.5026 97.3007 8.97814 88.2013 5.20904L87.8186 6.13292ZM111.826 22.1741C118.697 29.0456 124.148 37.2033 127.867 46.1814L128.791 45.7987C125.022 36.6993 119.497 28.4314 112.533 21.467L111.826 22.1741ZM127.867 46.1814C131.586 55.1595 133.5 64.7822 133.5 74.5H134.5C134.5 64.6509 132.56 54.8982 128.791 45.7987L127.867 46.1814ZM133.5 74.5C133.5 84.2178 131.586 93.8405 127.867 102.819L128.791 103.201C132.56 94.1018 134.5 84.3491 134.5 74.5H133.5ZM127.867 102.819C124.148 111.797 118.697 119.954 111.826 126.826L112.533 127.533C119.497 120.569 125.022 112.301 128.791 103.201L127.867 102.819ZM111.826 126.826C104.954 133.697 96.7967 139.148 87.8186 142.867L88.2013 143.791C97.3007 140.022 105.569 134.497 112.533 127.533L111.826 126.826ZM87.8186 142.867C78.8405 146.586 69.2178 148.5 59.5 148.5V149.5C69.3492 149.5 79.1018 147.56 88.2013 143.791L87.8186 142.867ZM60 149L60 5.12045e-08L59 -5.12035e-08L59 149H60Z" fill="#FDFDFD" fill-opacity="0.2" mask="url(#path-1-inside-1_624_462)"/>
<mask id="path-3-inside-2_624_462" fill="white">
<path d="M49.5 298C39.7165 298 30.0288 296.073 20.9901 292.329C11.9513 288.585 3.73851 283.097 -3.17946 276.179C-10.0974 269.261 -15.5851 261.049 -19.329 252.01C-23.073 242.971 -25 233.283 -25 223.5C-25 213.717 -23.073 204.029 -19.329 194.99C-15.585 185.951 -10.0974 177.739 -3.17945 170.821C3.73852 163.903 11.9513 158.415 20.9901 154.671C30.0289 150.927 39.7165 149 49.5 149L49.5 298Z"/>
<path d="M59.5 149C69.2835 149 78.9712 150.927 88.0099 154.671C97.0487 158.415 105.262 163.903 112.179 170.821C119.097 177.739 124.585 185.951 128.329 194.99C132.073 204.029 134 213.717 134 223.5C134 233.283 132.073 242.971 128.329 252.01C124.585 261.049 119.097 269.261 112.179 276.179C105.262 283.097 97.0487 288.585 88.0099 292.329C78.9712 296.073 69.2835 298 59.5 298L59.5 149Z"/>
</mask>
<path d="M49.5 298V298.5H50V298H49.5ZM49.5 149L50 149V148.5L49.5 148.5V149ZM59.5 149V148.5H59V149L59.5 149ZM134 223.5H134.5H134ZM59.5 298H59V298.5H59.5V298ZM49.5 297.5C39.7822 297.5 30.1595 295.586 21.1814 291.867L20.7987 292.791C29.8982 296.56 39.6509 298.5 49.5 298.5V297.5ZM21.1814 291.867C12.2033 288.148 4.04563 282.697 -2.8259 275.826L-3.53301 276.533C3.43138 283.497 11.6993 289.022 20.7987 292.791L21.1814 291.867ZM-2.8259 275.826C-9.69744 268.954 -15.1482 260.797 -18.8671 251.819L-19.791 252.201C-16.0219 261.301 -10.4974 269.569 -3.53301 276.533L-2.8259 275.826ZM-18.8671 251.819C-22.5859 242.84 -24.5 233.218 -24.5 223.5H-25.5C-25.5 233.349 -23.5601 243.102 -19.791 252.201L-18.8671 251.819ZM-24.5 223.5C-24.5 213.782 -22.5859 204.16 -18.8671 195.181L-19.791 194.799C-23.5601 203.898 -25.5 213.651 -25.5 223.5H-24.5ZM-18.8671 195.181C-15.1482 186.203 -9.69743 178.046 -2.8259 171.174L-3.533 170.467C-10.4974 177.431 -16.0219 185.699 -19.791 194.799L-18.8671 195.181ZM-2.8259 171.174C4.04564 164.303 12.2033 158.852 21.1814 155.133L20.7988 154.209C11.6993 157.978 3.43139 163.503 -3.533 170.467L-2.8259 171.174ZM21.1814 155.133C30.1595 151.414 39.7822 149.5 49.5 149.5V148.5C39.6509 148.5 29.8982 150.44 20.7988 154.209L21.1814 155.133ZM49 149L49 298H50L50 149L49 149ZM59.5 149.5C69.2178 149.5 78.8405 151.414 87.8186 155.133L88.2013 154.209C79.1019 150.44 69.3492 148.5 59.5 148.5V149.5ZM87.8186 155.133C96.7967 158.852 104.954 164.303 111.826 171.174L112.533 170.467C105.569 163.503 97.3007 157.978 88.2013 154.209L87.8186 155.133ZM111.826 171.174C118.697 178.046 124.148 186.203 127.867 195.181L128.791 194.799C125.022 185.699 119.497 177.431 112.533 170.467L111.826 171.174ZM127.867 195.181C131.586 204.16 133.5 213.782 133.5 223.5H134.5C134.5 213.651 132.56 203.898 128.791 194.799L127.867 195.181ZM133.5 223.5C133.5 233.218 131.586 242.84 127.867 251.819L128.791 252.201C132.56 243.102 134.5 233.349 134.5 223.5H133.5ZM127.867 251.819C124.148 260.797 118.697 268.954 111.826 275.826L112.533 276.533C119.497 269.569 125.022 261.301 128.791 252.201L127.867 251.819ZM111.826 275.826C104.954 282.697 96.7967 288.148 87.8186 291.867L88.2013 292.791C97.3007 289.022 105.569 283.497 112.533 276.533L111.826 275.826ZM87.8186 291.867C78.8405 295.586 69.2178 297.5 59.5 297.5V298.5C69.3492 298.5 79.1018 296.56 88.2013 292.791L87.8186 291.867ZM60 298L60 149L59 149L59 298H60Z" fill="#FDFDFD" fill-opacity="0.2" mask="url(#path-3-inside-2_624_462)"/>
<mask id="path-5-inside-3_624_462" fill="white">
<path d="M49.5 447C39.7165 447 30.0288 445.073 20.9901 441.329C11.9513 437.585 3.73851 432.097 -3.17946 425.179C-10.0974 418.261 -15.5851 410.049 -19.329 401.01C-23.073 391.971 -25 382.283 -25 372.5C-25 362.717 -23.073 353.029 -19.329 343.99C-15.585 334.951 -10.0974 326.739 -3.17945 319.821C3.73852 312.903 11.9513 307.415 20.9901 303.671C30.0289 299.927 39.7165 298 49.5 298L49.5 447Z"/>
<path d="M59.5 298C69.2835 298 78.9712 299.927 88.0099 303.671C97.0487 307.415 105.262 312.903 112.179 319.821C119.097 326.739 124.585 334.951 128.329 343.99C132.073 353.029 134 362.717 134 372.5C134 382.283 132.073 391.971 128.329 401.01C124.585 410.049 119.097 418.261 112.179 425.179C105.262 432.097 97.0487 437.585 88.0099 441.329C78.9712 445.073 69.2835 447 59.5 447L59.5 298Z"/>
</mask>
<path d="M49.5 447V447.5H50V447H49.5ZM49.5 298L50 298V297.5L49.5 297.5V298ZM59.5 298V297.5H59V298L59.5 298ZM134 372.5H134.5H134ZM59.5 447H59V447.5H59.5V447ZM49.5 446.5C39.7822 446.5 30.1595 444.586 21.1814 440.867L20.7987 441.791C29.8982 445.56 39.6509 447.5 49.5 447.5V446.5ZM21.1814 440.867C12.2033 437.148 4.04563 431.697 -2.8259 424.826L-3.53301 425.533C3.43138 432.497 11.6993 438.022 20.7987 441.791L21.1814 440.867ZM-2.8259 424.826C-9.69744 417.954 -15.1482 409.797 -18.8671 400.819L-19.791 401.201C-16.0219 410.301 -10.4974 418.569 -3.53301 425.533L-2.8259 424.826ZM-18.8671 400.819C-22.5859 391.84 -24.5 382.218 -24.5 372.5H-25.5C-25.5 382.349 -23.5601 392.102 -19.791 401.201L-18.8671 400.819ZM-24.5 372.5C-24.5 362.782 -22.5859 353.16 -18.8671 344.181L-19.791 343.799C-23.5601 352.898 -25.5 362.651 -25.5 372.5H-24.5ZM-18.8671 344.181C-15.1482 335.203 -9.69743 327.046 -2.8259 320.174L-3.533 319.467C-10.4974 326.431 -16.0219 334.699 -19.791 343.799L-18.8671 344.181ZM-2.8259 320.174C4.04564 313.303 12.2033 307.852 21.1814 304.133L20.7988 303.209C11.6993 306.978 3.43139 312.503 -3.533 319.467L-2.8259 320.174ZM21.1814 304.133C30.1595 300.414 39.7822 298.5 49.5 298.5V297.5C39.6509 297.5 29.8982 299.44 20.7988 303.209L21.1814 304.133ZM49 298L49 447H50L50 298L49 298ZM59.5 298.5C69.2178 298.5 78.8405 300.414 87.8186 304.133L88.2013 303.209C79.1019 299.44 69.3492 297.5 59.5 297.5V298.5ZM87.8186 304.133C96.7967 307.852 104.954 313.303 111.826 320.174L112.533 319.467C105.569 312.503 97.3007 306.978 88.2013 303.209L87.8186 304.133ZM111.826 320.174C118.697 327.046 124.148 335.203 127.867 344.181L128.791 343.799C125.022 334.699 119.497 326.431 112.533 319.467L111.826 320.174ZM127.867 344.181C131.586 353.16 133.5 362.782 133.5 372.5H134.5C134.5 362.651 132.56 352.898 128.791 343.799L127.867 344.181ZM133.5 372.5C133.5 382.218 131.586 391.84 127.867 400.819L128.791 401.201C132.56 392.102 134.5 382.349 134.5 372.5H133.5ZM127.867 400.819C124.148 409.797 118.697 417.954 111.826 424.826L112.533 425.533C119.497 418.569 125.022 410.301 128.791 401.201L127.867 400.819ZM111.826 424.826C104.954 431.697 96.7967 437.148 87.8186 440.867L88.2013 441.791C97.3007 438.022 105.569 432.497 112.533 425.533L111.826 424.826ZM87.8186 440.867C78.8405 444.586 69.2178 446.5 59.5 446.5V447.5C69.3492 447.5 79.1018 445.56 88.2013 441.791L87.8186 440.867ZM60 447L60 298L59 298L59 447H60Z" fill="#FDFDFD" fill-opacity="0.2" mask="url(#path-5-inside-3_624_462)"/>
<mask id="path-7-inside-4_624_462" fill="white">
<path d="M208.5 149C198.717 149 189.029 147.073 179.99 143.329C170.951 139.585 162.739 134.097 155.821 127.179C148.903 120.261 143.415 112.049 139.671 103.01C135.927 93.9712 134 84.2835 134 74.5C134 64.7165 135.927 55.0288 139.671 45.9901C143.415 36.9513 148.903 28.7385 155.821 21.8205C162.739 14.9026 170.951 9.41495 179.99 5.67097C189.029 1.927 198.717 -1.28295e-06 208.5 0L208.5 149Z"/>
<path d="M218.5 0C228.284 1.16667e-07 237.971 1.927 247.01 5.67098C256.049 9.41495 264.262 14.9026 271.179 21.8205C278.097 28.7385 283.585 36.9513 287.329 45.9901C291.073 55.0288 293 64.7165 293 74.5C293 84.2835 291.073 93.9712 287.329 103.01C283.585 112.049 278.097 120.261 271.179 127.179C264.262 134.097 256.049 139.585 247.01 143.329C237.971 147.073 228.283 149 218.5 149L218.5 0Z"/>
</mask>
<path d="M208.5 149V149.5H209V149H208.5ZM208.5 0L209 2.56026e-08V-0.5L208.5 -0.5V0ZM218.5 0V-0.5H218V-5.12035e-08L218.5 0ZM293 74.5H293.5H293ZM218.5 149H218V149.5H218.5V149ZM208.5 148.5C198.782 148.5 189.16 146.586 180.181 142.867L179.799 143.791C188.898 147.56 198.651 149.5 208.5 149.5V148.5ZM180.181 142.867C171.203 139.148 163.046 133.697 156.174 126.826L155.467 127.533C162.431 134.497 170.699 140.022 179.799 143.791L180.181 142.867ZM156.174 126.826C149.303 119.954 143.852 111.797 140.133 102.819L139.209 103.201C142.978 112.301 148.503 120.569 155.467 127.533L156.174 126.826ZM140.133 102.819C136.414 93.8405 134.5 84.2178 134.5 74.5H133.5C133.5 84.3491 135.44 94.1018 139.209 103.201L140.133 102.819ZM134.5 74.5C134.5 64.7822 136.414 55.1595 140.133 46.1814L139.209 45.7987C135.44 54.8982 133.5 64.6509 133.5 74.5H134.5ZM140.133 46.1814C143.852 37.2033 149.303 29.0456 156.174 22.1741L155.467 21.467C148.503 28.4314 142.978 36.6993 139.209 45.7987L140.133 46.1814ZM156.174 22.1741C163.046 15.3026 171.203 9.85176 180.181 6.13291L179.799 5.20903C170.699 8.97813 162.431 14.5026 155.467 21.467L156.174 22.1741ZM180.181 6.13291C189.16 2.41406 198.782 0.499999 208.5 0.5V-0.5C198.651 -0.500001 188.898 1.43993 179.799 5.20903L180.181 6.13291ZM208 -2.56014e-08L208 149H209L209 2.56026e-08L208 -2.56014e-08ZM218.5 0.5C228.218 0.5 237.84 2.41407 246.819 6.13292L247.201 5.20904C238.102 1.43993 228.349 -0.5 218.5 -0.5V0.5ZM246.819 6.13292C255.797 9.85176 263.954 15.3026 270.826 22.1741L271.533 21.467C264.569 14.5026 256.301 8.97814 247.201 5.20904L246.819 6.13292ZM270.826 22.1741C277.697 29.0456 283.148 37.2033 286.867 46.1814L287.791 45.7987C284.022 36.6993 278.497 28.4314 271.533 21.467L270.826 22.1741ZM286.867 46.1814C290.586 55.1595 292.5 64.7822 292.5 74.5H293.5C293.5 64.6509 291.56 54.8982 287.791 45.7987L286.867 46.1814ZM292.5 74.5C292.5 84.2178 290.586 93.8405 286.867 102.819L287.791 103.201C291.56 94.1018 293.5 84.3491 293.5 74.5H292.5ZM286.867 102.819C283.148 111.797 277.697 119.954 270.826 126.826L271.533 127.533C278.497 120.569 284.022 112.301 287.791 103.201L286.867 102.819ZM270.826 126.826C263.954 133.697 255.797 139.148 246.819 142.867L247.201 143.791C256.301 140.022 264.569 134.497 271.533 127.533L270.826 126.826ZM246.819 142.867C237.84 146.586 228.218 148.5 218.5 148.5V149.5C228.349 149.5 238.102 147.56 247.201 143.791L246.819 142.867ZM219 149L219 5.12045e-08L218 -5.12035e-08L218 149H219Z" fill="#FDFDFD" fill-opacity="0.2" mask="url(#path-7-inside-4_624_462)"/>
<mask id="path-9-inside-5_624_462" fill="white">
<path d="M208.5 298C198.717 298 189.029 296.073 179.99 292.329C170.951 288.585 162.739 283.097 155.821 276.179C148.903 269.261 143.415 261.049 139.671 252.01C135.927 242.971 134 233.283 134 223.5C134 213.717 135.927 204.029 139.671 194.99C143.415 185.951 148.903 177.739 155.821 170.821C162.739 163.903 170.951 158.415 179.99 154.671C189.029 150.927 198.717 149 208.5 149L208.5 298Z"/>
<path d="M218.5 149C228.284 149 237.971 150.927 247.01 154.671C256.049 158.415 264.262 163.903 271.179 170.821C278.097 177.739 283.585 185.951 287.329 194.99C291.073 204.029 293 213.717 293 223.5C293 233.283 291.073 242.971 287.329 252.01C283.585 261.049 278.097 269.261 271.179 276.179C264.262 283.097 256.049 288.585 247.01 292.329C237.971 296.073 228.283 298 218.5 298L218.5 149Z"/>
</mask>
<path d="M208.5 298V298.5H209V298H208.5ZM208.5 149L209 149V148.5L208.5 148.5V149ZM218.5 149V148.5H218V149L218.5 149ZM293 223.5H293.5H293ZM218.5 298H218V298.5H218.5V298ZM208.5 297.5C198.782 297.5 189.16 295.586 180.181 291.867L179.799 292.791C188.898 296.56 198.651 298.5 208.5 298.5V297.5ZM180.181 291.867C171.203 288.148 163.046 282.697 156.174 275.826L155.467 276.533C162.431 283.497 170.699 289.022 179.799 292.791L180.181 291.867ZM156.174 275.826C149.303 268.954 143.852 260.797 140.133 251.819L139.209 252.201C142.978 261.301 148.503 269.569 155.467 276.533L156.174 275.826ZM140.133 251.819C136.414 242.84 134.5 233.218 134.5 223.5H133.5C133.5 233.349 135.44 243.102 139.209 252.201L140.133 251.819ZM134.5 223.5C134.5 213.782 136.414 204.16 140.133 195.181L139.209 194.799C135.44 203.898 133.5 213.651 133.5 223.5H134.5ZM140.133 195.181C143.852 186.203 149.303 178.046 156.174 171.174L155.467 170.467C148.503 177.431 142.978 185.699 139.209 194.799L140.133 195.181ZM156.174 171.174C163.046 164.303 171.203 158.852 180.181 155.133L179.799 154.209C170.699 157.978 162.431 163.503 155.467 170.467L156.174 171.174ZM180.181 155.133C189.16 151.414 198.782 149.5 208.5 149.5V148.5C198.651 148.5 188.898 150.44 179.799 154.209L180.181 155.133ZM208 149L208 298H209L209 149L208 149ZM218.5 149.5C228.218 149.5 237.84 151.414 246.819 155.133L247.201 154.209C238.102 150.44 228.349 148.5 218.5 148.5V149.5ZM246.819 155.133C255.797 158.852 263.954 164.303 270.826 171.174L271.533 170.467C264.569 163.503 256.301 157.978 247.201 154.209L246.819 155.133ZM270.826 171.174C277.697 178.046 283.148 186.203 286.867 195.181L287.791 194.799C284.022 185.699 278.497 177.431 271.533 170.467L270.826 171.174ZM286.867 195.181C290.586 204.16 292.5 213.782 292.5 223.5H293.5C293.5 213.651 291.56 203.898 287.791 194.799L286.867 195.181ZM292.5 223.5C292.5 233.218 290.586 242.84 286.867 251.819L287.791 252.201C291.56 243.102 293.5 233.349 293.5 223.5H292.5ZM286.867 251.819C283.148 260.797 277.697 268.954 270.826 275.826L271.533 276.533C278.497 269.569 284.022 261.301 287.791 252.201L286.867 251.819ZM270.826 275.826C263.954 282.697 255.797 288.148 246.819 291.867L247.201 292.791C256.301 289.022 264.569 283.497 271.533 276.533L270.826 275.826ZM246.819 291.867C237.84 295.586 228.218 297.5 218.5 297.5V298.5C228.349 298.5 238.102 296.56 247.201 292.791L246.819 291.867ZM219 298L219 149L218 149L218 298H219Z" fill="#FDFDFD" fill-opacity="0.2" mask="url(#path-9-inside-5_624_462)"/>
<mask id="path-11-inside-6_624_462" fill="white">
<path d="M208.5 447C198.717 447 189.029 445.073 179.99 441.329C170.951 437.585 162.739 432.097 155.821 425.179C148.903 418.261 143.415 410.049 139.671 401.01C135.927 391.971 134 382.283 134 372.5C134 362.717 135.927 353.029 139.671 343.99C143.415 334.951 148.903 326.739 155.821 319.821C162.739 312.903 170.951 307.415 179.99 303.671C189.029 299.927 198.717 298 208.5 298L208.5 447Z"/>
<path d="M218.5 298C228.284 298 237.971 299.927 247.01 303.671C256.049 307.415 264.262 312.903 271.179 319.821C278.097 326.739 283.585 334.951 287.329 343.99C291.073 353.029 293 362.717 293 372.5C293 382.283 291.073 391.971 287.329 401.01C283.585 410.049 278.097 418.261 271.179 425.179C264.262 432.097 256.049 437.585 247.01 441.329C237.971 445.073 228.283 447 218.5 447L218.5 298Z"/>
</mask>
<path d="M208.5 447V447.5H209V447H208.5ZM208.5 298L209 298V297.5L208.5 297.5V298ZM218.5 298V297.5H218V298L218.5 298ZM293 372.5H293.5H293ZM218.5 447H218V447.5H218.5V447ZM208.5 446.5C198.782 446.5 189.16 444.586 180.181 440.867L179.799 441.791C188.898 445.56 198.651 447.5 208.5 447.5V446.5ZM180.181 440.867C171.203 437.148 163.046 431.697 156.174 424.826L155.467 425.533C162.431 432.497 170.699 438.022 179.799 441.791L180.181 440.867ZM156.174 424.826C149.303 417.954 143.852 409.797 140.133 400.819L139.209 401.201C142.978 410.301 148.503 418.569 155.467 425.533L156.174 424.826ZM140.133 400.819C136.414 391.84 134.5 382.218 134.5 372.5H133.5C133.5 382.349 135.44 392.102 139.209 401.201L140.133 400.819ZM134.5 372.5C134.5 362.782 136.414 353.16 140.133 344.181L139.209 343.799C135.44 352.898 133.5 362.651 133.5 372.5H134.5ZM140.133 344.181C143.852 335.203 149.303 327.046 156.174 320.174L155.467 319.467C148.503 326.431 142.978 334.699 139.209 343.799L140.133 344.181ZM156.174 320.174C163.046 313.303 171.203 307.852 180.181 304.133L179.799 303.209C170.699 306.978 162.431 312.503 155.467 319.467L156.174 320.174ZM180.181 304.133C189.16 300.414 198.782 298.5 208.5 298.5V297.5C198.651 297.5 188.898 299.44 179.799 303.209L180.181 304.133ZM208 298L208 447H209L209 298L208 298ZM218.5 298.5C228.218 298.5 237.84 300.414 246.819 304.133L247.201 303.209C238.102 299.44 228.349 297.5 218.5 297.5V298.5ZM246.819 304.133C255.797 307.852 263.954 313.303 270.826 320.174L271.533 319.467C264.569 312.503 256.301 306.978 247.201 303.209L246.819 304.133ZM270.826 320.174C277.697 327.046 283.148 335.203 286.867 344.181L287.791 343.799C284.022 334.699 278.497 326.431 271.533 319.467L270.826 320.174ZM286.867 344.181C290.586 353.16 292.5 362.782 292.5 372.5H293.5C293.5 362.651 291.56 352.898 287.791 343.799L286.867 344.181ZM292.5 372.5C292.5 382.218 290.586 391.84 286.867 400.819L287.791 401.201C291.56 392.102 293.5 382.349 293.5 372.5H292.5ZM286.867 400.819C283.148 409.797 277.697 417.954 270.826 424.826L271.533 425.533C278.497 418.569 284.022 410.301 287.791 401.201L286.867 400.819ZM270.826 424.826C263.954 431.697 255.797 437.148 246.819 440.867L247.201 441.791C256.301 438.022 264.569 432.497 271.533 425.533L270.826 424.826ZM246.819 440.867C237.84 444.586 228.218 446.5 218.5 446.5V447.5C228.349 447.5 238.102 445.56 247.201 441.791L246.819 440.867ZM219 447L219 298L218 298L218 447H219Z" fill="#FDFDFD" fill-opacity="0.2" mask="url(#path-11-inside-6_624_462)"/>
<mask id="path-13-inside-7_624_462" fill="white">
<path d="M367.5 149C357.717 149 348.029 147.073 338.99 143.329C329.951 139.585 321.739 134.097 314.821 127.179C307.903 120.261 302.415 112.049 298.671 103.01C294.927 93.9712 293 84.2835 293 74.5C293 64.7165 294.927 55.0288 298.671 45.9901C302.415 36.9513 307.903 28.7385 314.821 21.8205C321.739 14.9026 329.951 9.41495 338.99 5.67097C348.029 1.927 357.717 -1.28295e-06 367.5 0L367.5 149Z"/>
<path d="M377.5 0C387.284 1.16667e-07 396.971 1.927 406.01 5.67098C415.049 9.41495 423.262 14.9026 430.179 21.8205C437.097 28.7385 442.585 36.9513 446.329 45.9901C450.073 55.0288 452 64.7165 452 74.5C452 84.2835 450.073 93.9712 446.329 103.01C442.585 112.049 437.097 120.261 430.179 127.179C423.262 134.097 415.049 139.585 406.01 143.329C396.971 147.073 387.283 149 377.5 149L377.5 0Z"/>
</mask>
<path d="M367.5 149V149.5H368V149H367.5ZM367.5 0L368 2.56026e-08V-0.5L367.5 -0.5V0ZM377.5 0V-0.5H377V-5.12035e-08L377.5 0ZM452 74.5H452.5H452ZM377.5 149H377V149.5H377.5V149ZM367.5 148.5C357.782 148.5 348.16 146.586 339.181 142.867L338.799 143.791C347.898 147.56 357.651 149.5 367.5 149.5V148.5ZM339.181 142.867C330.203 139.148 322.046 133.697 315.174 126.826L314.467 127.533C321.431 134.497 329.699 140.022 338.799 143.791L339.181 142.867ZM315.174 126.826C308.303 119.954 302.852 111.797 299.133 102.819L298.209 103.201C301.978 112.301 307.503 120.569 314.467 127.533L315.174 126.826ZM299.133 102.819C295.414 93.8405 293.5 84.2178 293.5 74.5H292.5C292.5 84.3491 294.44 94.1018 298.209 103.201L299.133 102.819ZM293.5 74.5C293.5 64.7822 295.414 55.1595 299.133 46.1814L298.209 45.7987C294.44 54.8982 292.5 64.6509 292.5 74.5H293.5ZM299.133 46.1814C302.852 37.2033 308.303 29.0456 315.174 22.1741L314.467 21.467C307.503 28.4314 301.978 36.6993 298.209 45.7987L299.133 46.1814ZM315.174 22.1741C322.046 15.3026 330.203 9.85176 339.181 6.13291L338.799 5.20903C329.699 8.97813 321.431 14.5026 314.467 21.467L315.174 22.1741ZM339.181 6.13291C348.16 2.41406 357.782 0.499999 367.5 0.5V-0.5C357.651 -0.500001 347.898 1.43993 338.799 5.20903L339.181 6.13291ZM367 -2.56014e-08L367 149H368L368 2.56026e-08L367 -2.56014e-08ZM377.5 0.5C387.218 0.5 396.84 2.41407 405.819 6.13292L406.201 5.20904C397.102 1.43993 387.349 -0.5 377.5 -0.5V0.5ZM405.819 6.13292C414.797 9.85176 422.954 15.3026 429.826 22.1741L430.533 21.467C423.569 14.5026 415.301 8.97814 406.201 5.20904L405.819 6.13292ZM429.826 22.1741C436.697 29.0456 442.148 37.2033 445.867 46.1814L446.791 45.7987C443.022 36.6993 437.497 28.4314 430.533 21.467L429.826 22.1741ZM445.867 46.1814C449.586 55.1595 451.5 64.7822 451.5 74.5H452.5C452.5 64.6509 450.56 54.8982 446.791 45.7987L445.867 46.1814ZM451.5 74.5C451.5 84.2178 449.586 93.8405 445.867 102.819L446.791 103.201C450.56 94.1018 452.5 84.3491 452.5 74.5H451.5ZM445.867 102.819C442.148 111.797 436.697 119.954 429.826 126.826L430.533 127.533C437.497 120.569 443.022 112.301 446.791 103.201L445.867 102.819ZM429.826 126.826C422.954 133.697 414.797 139.148 405.819 142.867L406.201 143.791C415.301 140.022 423.569 134.497 430.533 127.533L429.826 126.826ZM405.819 142.867C396.84 146.586 387.218 148.5 377.5 148.5V149.5C387.349 149.5 397.102 147.56 406.201 143.791L405.819 142.867ZM378 149L378 5.12045e-08L377 -5.12035e-08L377 149H378Z" fill="#FDFDFD" fill-opacity="0.2" mask="url(#path-13-inside-7_624_462)"/>
<mask id="path-15-inside-8_624_462" fill="white">
<path d="M367.5 298C357.717 298 348.029 296.073 338.99 292.329C329.951 288.585 321.739 283.097 314.821 276.179C307.903 269.261 302.415 261.049 298.671 252.01C294.927 242.971 293 233.283 293 223.5C293 213.717 294.927 204.029 298.671 194.99C302.415 185.951 307.903 177.739 314.821 170.821C321.739 163.903 329.951 158.415 338.99 154.671C348.029 150.927 357.717 149 367.5 149L367.5 298Z"/>
<path d="M377.5 149C387.284 149 396.971 150.927 406.01 154.671C415.049 158.415 423.262 163.903 430.179 170.821C437.097 177.739 442.585 185.951 446.329 194.99C450.073 204.029 452 213.717 452 223.5C452 233.283 450.073 242.971 446.329 252.01C442.585 261.049 437.097 269.261 430.179 276.179C423.262 283.097 415.049 288.585 406.01 292.329C396.971 296.073 387.283 298 377.5 298L377.5 149Z"/>
</mask>
<path d="M367.5 298V298.5H368V298H367.5ZM367.5 149L368 149V148.5L367.5 148.5V149ZM377.5 149V148.5H377V149L377.5 149ZM452 223.5H452.5H452ZM377.5 298H377V298.5H377.5V298ZM367.5 297.5C357.782 297.5 348.16 295.586 339.181 291.867L338.799 292.791C347.898 296.56 357.651 298.5 367.5 298.5V297.5ZM339.181 291.867C330.203 288.148 322.046 282.697 315.174 275.826L314.467 276.533C321.431 283.497 329.699 289.022 338.799 292.791L339.181 291.867ZM315.174 275.826C308.303 268.954 302.852 260.797 299.133 251.819L298.209 252.201C301.978 261.301 307.503 269.569 314.467 276.533L315.174 275.826ZM299.133 251.819C295.414 242.84 293.5 233.218 293.5 223.5H292.5C292.5 233.349 294.44 243.102 298.209 252.201L299.133 251.819ZM293.5 223.5C293.5 213.782 295.414 204.16 299.133 195.181L298.209 194.799C294.44 203.898 292.5 213.651 292.5 223.5H293.5ZM299.133 195.181C302.852 186.203 308.303 178.046 315.174 171.174L314.467 170.467C307.503 177.431 301.978 185.699 298.209 194.799L299.133 195.181ZM315.174 171.174C322.046 164.303 330.203 158.852 339.181 155.133L338.799 154.209C329.699 157.978 321.431 163.503 314.467 170.467L315.174 171.174ZM339.181 155.133C348.16 151.414 357.782 149.5 367.5 149.5V148.5C357.651 148.5 347.898 150.44 338.799 154.209L339.181 155.133ZM367 149L367 298H368L368 149L367 149ZM377.5 149.5C387.218 149.5 396.84 151.414 405.819 155.133L406.201 154.209C397.102 150.44 387.349 148.5 377.5 148.5V149.5ZM405.819 155.133C414.797 158.852 422.954 164.303 429.826 171.174L430.533 170.467C423.569 163.503 415.301 157.978 406.201 154.209L405.819 155.133ZM429.826 171.174C436.697 178.046 442.148 186.203 445.867 195.181L446.791 194.799C443.022 185.699 437.497 177.431 430.533 170.467L429.826 171.174ZM445.867 195.181C449.586 204.16 451.5 213.782 451.5 223.5H452.5C452.5 213.651 450.56 203.898 446.791 194.799L445.867 195.181ZM451.5 223.5C451.5 233.218 449.586 242.84 445.867 251.819L446.791 252.201C450.56 243.102 452.5 233.349 452.5 223.5H451.5ZM445.867 251.819C442.148 260.797 436.697 268.954 429.826 275.826L430.533 276.533C437.497 269.569 443.022 261.301 446.791 252.201L445.867 251.819ZM429.826 275.826C422.954 282.697 414.797 288.148 405.819 291.867L406.201 292.791C415.301 289.022 423.569 283.497 430.533 276.533L429.826 275.826ZM405.819 291.867C396.84 295.586 387.218 297.5 377.5 297.5V298.5C387.349 298.5 397.102 296.56 406.201 292.791L405.819 291.867ZM378 298L378 149L377 149L377 298H378Z" fill="#FDFDFD" fill-opacity="0.2" mask="url(#path-15-inside-8_624_462)"/>
<mask id="path-17-inside-9_624_462" fill="white">
<path d="M367.5 447C357.717 447 348.029 445.073 338.99 441.329C329.951 437.585 321.739 432.097 314.821 425.179C307.903 418.261 302.415 410.049 298.671 401.01C294.927 391.971 293 382.283 293 372.5C293 362.717 294.927 353.029 298.671 343.99C302.415 334.951 307.903 326.739 314.821 319.821C321.739 312.903 329.951 307.415 338.99 303.671C348.029 299.927 357.717 298 367.5 298L367.5 447Z"/>
<path d="M377.5 298C387.284 298 396.971 299.927 406.01 303.671C415.049 307.415 423.262 312.903 430.179 319.821C437.097 326.739 442.585 334.951 446.329 343.99C450.073 353.029 452 362.717 452 372.5C452 382.283 450.073 391.971 446.329 401.01C442.585 410.049 437.097 418.261 430.179 425.179C423.262 432.097 415.049 437.585 406.01 441.329C396.971 445.073 387.283 447 377.5 447L377.5 298Z"/>
</mask>
<path d="M367.5 447V447.5H368V447H367.5ZM367.5 298L368 298V297.5L367.5 297.5V298ZM377.5 298V297.5H377V298L377.5 298ZM452 372.5H452.5H452ZM377.5 447H377V447.5H377.5V447ZM367.5 446.5C357.782 446.5 348.16 444.586 339.181 440.867L338.799 441.791C347.898 445.56 357.651 447.5 367.5 447.5V446.5ZM339.181 440.867C330.203 437.148 322.046 431.697 315.174 424.826L314.467 425.533C321.431 432.497 329.699 438.022 338.799 441.791L339.181 440.867ZM315.174 424.826C308.303 417.954 302.852 409.797 299.133 400.819L298.209 401.201C301.978 410.301 307.503 418.569 314.467 425.533L315.174 424.826ZM299.133 400.819C295.414 391.84 293.5 382.218 293.5 372.5H292.5C292.5 382.349 294.44 392.102 298.209 401.201L299.133 400.819ZM293.5 372.5C293.5 362.782 295.414 353.16 299.133 344.181L298.209 343.799C294.44 352.898 292.5 362.651 292.5 372.5H293.5ZM299.133 344.181C302.852 335.203 308.303 327.046 315.174 320.174L314.467 319.467C307.503 326.431 301.978 334.699 298.209 343.799L299.133 344.181ZM315.174 320.174C322.046 313.303 330.203 307.852 339.181 304.133L338.799 303.209C329.699 306.978 321.431 312.503 314.467 319.467L315.174 320.174ZM339.181 304.133C348.16 300.414 357.782 298.5 367.5 298.5V297.5C357.651 297.5 347.898 299.44 338.799 303.209L339.181 304.133ZM367 298L367 447H368L368 298L367 298ZM377.5 298.5C387.218 298.5 396.84 300.414 405.819 304.133L406.201 303.209C397.102 299.44 387.349 297.5 377.5 297.5V298.5ZM405.819 304.133C414.797 307.852 422.954 313.303 429.826 320.174L430.533 319.467C423.569 312.503 415.301 306.978 406.201 303.209L405.819 304.133ZM429.826 320.174C436.697 327.046 442.148 335.203 445.867 344.181L446.791 343.799C443.022 334.699 437.497 326.431 430.533 319.467L429.826 320.174ZM445.867 344.181C449.586 353.16 451.5 362.782 451.5 372.5H452.5C452.5 362.651 450.56 352.898 446.791 343.799L445.867 344.181ZM451.5 372.5C451.5 382.218 449.586 391.84 445.867 400.819L446.791 401.201C450.56 392.102 452.5 382.349 452.5 372.5H451.5ZM445.867 400.819C442.148 409.797 436.697 417.954 429.826 424.826L430.533 425.533C437.497 418.569 443.022 410.301 446.791 401.201L445.867 400.819ZM429.826 424.826C422.954 431.697 414.797 437.148 405.819 440.867L406.201 441.791C415.301 438.022 423.569 432.497 430.533 425.533L429.826 424.826ZM405.819 440.867C396.84 444.586 387.218 446.5 377.5 446.5V447.5C387.349 447.5 397.102 445.56 406.201 441.791L405.819 440.867ZM378 447L378 298L377 298L377 447H378Z" fill="#FDFDFD" fill-opacity="0.2" mask="url(#path-17-inside-9_624_462)"/>
</svg>
