<svg width="312" height="235" viewBox="0 0 312 235" fill="none" xmlns="http://www.w3.org/2000/svg">
<path d="M4 2.95287e-05H132.746V99.25C132.746 126.726 110.129 149 82.2307 149H54.515C26.6163 149 4 126.726 4 99.2499V2.95287e-05Z" fill="#FED47E"/>
<path d="M219.373 149C199.31 149 180.07 141.151 165.883 127.179C151.697 113.208 143.727 94.2586 143.727 74.5C143.727 54.7414 151.697 35.792 165.883 21.8206C180.07 7.84911 199.31 3.16485e-05 219.373 2.95287e-05V149Z" fill="#FED47E"/>
<path d="M230.354 0C250.417 2.59103e-06 269.658 7.84909 283.844 21.8205C298.03 35.792 306 54.7414 306 74.5C306 94.2586 298.03 113.208 283.844 127.179C269.658 141.151 250.417 149 230.354 149V0Z" fill="#FED47E"/>
<g filter="url(#filter0_d_624_472)">
<path d="M12.7104 179.28L13.9104 181.44L7.28643 185.04L13.9104 188.592L12.7104 190.824L4.86243 186.36V183.744L12.7104 179.28Z" fill="#FED47E"/>
<path d="M26.8999 176.472C28.6439 176.472 30.0999 176.68 31.2679 177.096C32.4359 177.512 33.3639 178.08 34.0519 178.8C34.7559 179.504 35.2519 180.32 35.5399 181.248C35.8439 182.176 35.9959 183.152 35.9959 184.176C35.9959 185.2 35.8279 186.184 35.4919 187.128C35.1719 188.072 34.6519 188.912 33.9319 189.648C33.2279 190.368 32.2919 190.944 31.1239 191.376C29.9719 191.792 28.5639 192 26.8999 192H18.0199V176.472H26.8999ZM21.2119 189.264H26.8279C27.9799 189.264 28.9319 189.128 29.6839 188.856C30.4519 188.568 31.0599 188.184 31.5079 187.704C31.9559 187.224 32.2759 186.68 32.4679 186.072C32.6599 185.464 32.7559 184.832 32.7559 184.176C32.7559 183.52 32.6599 182.896 32.4679 182.304C32.2759 181.712 31.9559 181.184 31.5079 180.72C31.0599 180.256 30.4519 179.888 29.6839 179.616C28.9319 179.344 27.9799 179.208 26.8279 179.208H21.2119V189.264Z" fill="#FED47E"/>
<path d="M42.2816 174.84V177.576H38.6576V174.84H42.2816ZM38.8976 180.072H42.0176V192H38.8976V180.072Z" fill="#FED47E"/>
<path d="M51.7035 189.96H50.5755L54.9435 180.072H58.3515L52.6155 192H49.6635L44.0475 180.072H47.4795L51.7035 189.96Z" fill="#FED47E"/>
<path d="M63.7504 174.84V177.576H60.1264V174.84H63.7504ZM60.3664 180.072H63.4864V192H60.3664V180.072Z" fill="#FED47E"/>
<path d="M72.4042 192.264C71.2042 192.264 70.1162 192.008 69.1402 191.496C68.1802 190.968 67.4202 190.24 66.8602 189.312C66.3002 188.368 66.0202 187.28 66.0202 186.048C66.0202 184.784 66.2922 183.688 66.8362 182.76C67.3962 181.832 68.1562 181.112 69.1162 180.6C70.0762 180.072 71.1722 179.808 72.4042 179.808C73.4762 179.808 74.3882 179.968 75.1402 180.288C75.8922 180.608 76.5002 181.056 76.9642 181.632C77.4282 182.192 77.7642 182.848 77.9722 183.6C78.1962 184.352 78.3082 185.168 78.3082 186.048C78.3082 186.752 78.1962 187.472 77.9722 188.208C77.7482 188.928 77.4042 189.6 76.9402 190.224C76.4762 190.832 75.8682 191.328 75.1162 191.712C74.3642 192.08 73.4602 192.264 72.4042 192.264ZM73.4122 189.864C74.3562 189.864 75.1722 189.704 75.8602 189.384C76.5482 189.064 77.0762 188.616 77.4442 188.04C77.8122 187.464 77.9962 186.8 77.9962 186.048C77.9962 185.232 77.8042 184.544 77.4202 183.984C77.0522 183.408 76.5242 182.968 75.8362 182.664C75.1642 182.36 74.3562 182.208 73.4122 182.208C72.0842 182.208 71.0522 182.56 70.3162 183.264C69.5802 183.968 69.2122 184.896 69.2122 186.048C69.2122 186.816 69.3882 187.488 69.7402 188.064C70.0922 188.624 70.5802 189.064 71.2042 189.384C71.8442 189.704 72.5802 189.864 73.4122 189.864ZM77.9962 175.272H81.1162V192H78.2122C78.1642 191.632 78.1162 191.16 78.0682 190.584C78.0202 189.992 77.9962 189.44 77.9962 188.928V175.272Z" fill="#FED47E"/>
<path d="M95.3511 188.04H98.3751C98.2471 188.856 97.9031 189.584 97.3431 190.224C96.7991 190.864 96.0551 191.368 95.1111 191.736C94.1671 192.104 93.0151 192.288 91.6551 192.288C90.1351 192.288 88.7911 192.048 87.6231 191.568C86.4551 191.072 85.5431 190.36 84.8871 189.432C84.2311 188.504 83.9031 187.384 83.9031 186.072C83.9031 184.76 84.2231 183.64 84.8631 182.712C85.5031 181.768 86.3911 181.048 87.5271 180.552C88.6791 180.056 90.023 179.808 91.5591 179.808C93.1271 179.808 94.4311 180.056 95.4711 180.552C96.5111 181.048 97.2791 181.8 97.7751 182.808C98.2871 183.8 98.5031 185.072 98.423 186.624H87.0471C87.1271 187.232 87.3511 187.784 87.7191 188.28C88.1031 188.776 88.6151 189.168 89.2551 189.456C89.911 189.744 90.6871 189.888 91.5831 189.888C92.5751 189.888 93.3991 189.72 94.0551 189.384C94.7271 189.032 95.159 188.584 95.3511 188.04ZM91.4151 182.184C90.2631 182.184 89.3271 182.44 88.6071 182.952C87.8871 183.448 87.423 184.064 87.215 184.8H95.327C95.247 184 94.8631 183.368 94.175 182.904C93.5031 182.424 92.5831 182.184 91.4151 182.184Z" fill="#FED47E"/>
<path d="M106.553 192.264C105.353 192.264 104.265 192.008 103.289 191.496C102.329 190.968 101.569 190.24 101.009 189.312C100.449 188.368 100.169 187.28 100.169 186.048C100.169 184.784 100.441 183.688 100.985 182.76C101.545 181.832 102.305 181.112 103.265 180.6C104.225 180.072 105.321 179.808 106.553 179.808C107.625 179.808 108.537 179.968 109.289 180.288C110.041 180.608 110.649 181.056 111.113 181.632C111.577 182.192 111.913 182.848 112.121 183.6C112.345 184.352 112.457 185.168 112.457 186.048C112.457 186.752 112.345 187.472 112.121 188.208C111.897 188.928 111.553 189.6 111.089 190.224C110.625 190.832 110.017 191.328 109.265 191.712C108.513 192.08 107.609 192.264 106.553 192.264ZM107.561 189.864C108.505 189.864 109.321 189.704 110.009 189.384C110.697 189.064 111.225 188.616 111.593 188.04C111.961 187.464 112.145 186.8 112.145 186.048C112.145 185.232 111.953 184.544 111.569 183.984C111.201 183.408 110.673 182.968 109.985 182.664C109.313 182.36 108.505 182.208 107.561 182.208C106.233 182.208 105.201 182.56 104.465 183.264C103.729 183.968 103.361 184.896 103.361 186.048C103.361 186.816 103.537 187.488 103.889 188.064C104.241 188.624 104.729 189.064 105.353 189.384C105.993 189.704 106.729 189.864 107.561 189.864ZM112.145 175.272H115.265V192H112.361C112.313 191.632 112.265 191.16 112.217 190.584C112.169 189.992 112.145 189.44 112.145 188.928V175.272Z" fill="#FED47E"/>
<path d="M124.825 192V176.472H133.777C135.857 176.472 137.433 176.824 138.505 177.528C139.593 178.216 140.137 179.248 140.137 180.624C140.137 181.504 139.921 182.2 139.489 182.712C139.057 183.208 138.441 183.576 137.641 183.816C136.857 184.056 135.929 184.208 134.857 184.272L134.953 184.104C135.737 184.12 136.473 184.176 137.161 184.272C137.865 184.368 138.481 184.544 139.009 184.8C139.537 185.056 139.953 185.416 140.257 185.88C140.561 186.328 140.713 186.92 140.713 187.656C140.713 188.616 140.457 189.416 139.945 190.056C139.433 190.68 138.721 191.152 137.809 191.472C136.897 191.792 135.841 191.968 134.641 192H124.825ZM128.017 189.36H134.305C135.313 189.36 136.089 189.2 136.633 188.88C137.177 188.544 137.449 188.016 137.449 187.296C137.449 186.768 137.289 186.384 136.969 186.144C136.649 185.904 136.225 185.76 135.697 185.712C135.169 185.648 134.601 185.616 133.993 185.616H128.017V189.36ZM128.017 183.048H133.657C134.665 183.048 135.441 182.904 135.985 182.616C136.529 182.312 136.801 181.8 136.801 181.08C136.801 180.36 136.529 179.856 135.985 179.568C135.441 179.264 134.721 179.112 133.825 179.112H128.017V183.048Z" fill="#FED47E"/>
<path d="M142.063 180.072H145.375L150.535 191.52L147.847 192L142.063 180.072ZM156.655 180.072L148.399 196.8H145.159L148.687 190.224L153.319 180.072H156.655Z" fill="#FED47E"/>
<path d="M167.86 176.472V189.336H178.18V192H164.668V176.472H167.86Z" fill="#FED47E"/>
<path d="M186.076 192.264C184.892 192.264 183.812 192.008 182.836 191.496C181.876 190.968 181.108 190.24 180.532 189.312C179.972 188.368 179.692 187.28 179.692 186.048C179.692 184.784 179.98 183.688 180.556 182.76C181.132 181.832 181.908 181.112 182.884 180.6C183.876 180.072 184.996 179.808 186.244 179.808C187.62 179.808 188.724 180.088 189.556 180.648C190.404 181.192 191.02 181.936 191.404 182.88C191.788 183.824 191.98 184.88 191.98 186.048C191.98 186.752 191.868 187.472 191.644 188.208C191.42 188.928 191.076 189.6 190.612 190.224C190.148 190.832 189.54 191.328 188.788 191.712C188.036 192.08 187.132 192.264 186.076 192.264ZM187.084 189.864C188.028 189.864 188.844 189.704 189.532 189.384C190.22 189.064 190.748 188.616 191.116 188.04C191.484 187.464 191.668 186.8 191.668 186.048C191.668 185.232 191.476 184.544 191.092 183.984C190.724 183.408 190.196 182.976 189.508 182.688C188.836 182.384 188.028 182.232 187.084 182.232C185.756 182.232 184.724 182.584 183.988 183.288C183.252 183.976 182.884 184.896 182.884 186.048C182.884 186.816 183.06 187.488 183.412 188.064C183.764 188.624 184.252 189.064 184.876 189.384C185.516 189.704 186.252 189.864 187.084 189.864ZM191.668 180.072H194.788V192H191.884C191.884 192 191.86 191.848 191.812 191.544C191.78 191.224 191.748 190.824 191.716 190.344C191.684 189.864 191.668 189.392 191.668 188.928V180.072Z" fill="#FED47E"/>
<path d="M197.612 180.072H200.732V192H197.612V180.072ZM206.276 179.808C207.012 179.808 207.692 179.904 208.316 180.096C208.94 180.288 209.484 180.584 209.948 180.984C210.412 181.384 210.772 181.896 211.028 182.52C211.284 183.128 211.412 183.856 211.412 184.704V192H208.292V185.256C208.292 184.248 208.044 183.512 207.548 183.048C207.068 182.568 206.276 182.328 205.172 182.328C204.34 182.328 203.588 182.488 202.916 182.808C202.244 183.128 201.7 183.536 201.284 184.032C200.868 184.512 200.628 185.016 200.564 185.544L200.54 184.32C200.62 183.76 200.804 183.216 201.092 182.688C201.38 182.16 201.764 181.68 202.244 181.248C202.74 180.8 203.324 180.448 203.996 180.192C204.668 179.936 205.428 179.808 206.276 179.808Z" fill="#FED47E"/>
<path d="M220.204 190.176C218.908 190.176 217.764 189.984 216.772 189.6C215.796 189.2 215.036 188.616 214.492 187.848C213.948 187.08 213.676 186.152 213.676 185.064C213.676 183.992 213.94 183.064 214.468 182.28C214.996 181.496 215.748 180.888 216.724 180.456C217.716 180.024 218.876 179.808 220.204 179.808C220.572 179.808 220.924 179.832 221.26 179.88C221.612 179.928 221.956 179.992 222.292 180.072L228.316 180.096V182.448C227.5 182.464 226.668 182.368 225.82 182.16C224.988 181.936 224.252 181.696 223.612 181.44L223.54 181.272C224.085 181.528 224.596 181.848 225.076 182.232C225.556 182.6 225.94 183.032 226.228 183.528C226.532 184.008 226.684 184.568 226.684 185.208C226.684 186.248 226.42 187.144 225.892 187.896C225.364 188.632 224.612 189.2 223.636 189.6C222.676 189.984 221.532 190.176 220.204 190.176ZM224.212 196.92V196.344C224.212 195.608 223.972 195.096 223.492 194.808C223.028 194.52 222.388 194.376 221.572 194.376H217.852C217.132 194.376 216.524 194.32 216.028 194.208C215.548 194.096 215.164 193.936 214.876 193.728C214.589 193.52 214.38 193.272 214.252 192.984C214.124 192.712 214.06 192.416 214.06 192.096C214.06 191.456 214.268 190.976 214.684 190.656C215.1 190.32 215.66 190.096 216.364 189.984C217.068 189.872 217.844 189.848 218.692 189.912L220.204 190.176C219.196 190.208 218.444 190.296 217.948 190.44C217.468 190.568 217.228 190.832 217.228 191.232C217.228 191.472 217.324 191.664 217.516 191.808C217.708 191.936 217.98 192 218.332 192H222.244C223.316 192 224.228 192.112 224.98 192.336C225.748 192.576 226.332 192.968 226.732 193.512C227.132 194.072 227.332 194.832 227.332 195.792V196.92H224.212ZM220.204 187.92C220.892 187.92 221.492 187.808 222.004 187.584C222.532 187.36 222.94 187.04 223.228 186.624C223.516 186.192 223.66 185.68 223.66 185.088C223.66 184.48 223.516 183.96 223.228 183.528C222.94 183.096 222.54 182.768 222.028 182.544C221.516 182.304 220.908 182.184 220.204 182.184C219.516 182.184 218.908 182.304 218.38 182.544C217.852 182.768 217.444 183.096 217.156 183.528C216.868 183.96 216.724 184.48 216.724 185.088C216.724 185.68 216.868 186.192 217.156 186.624C217.444 187.04 217.844 187.36 218.356 187.584C218.884 187.808 219.5 187.92 220.204 187.92Z" fill="#FED47E"/>
<path d="M244.154 192H241.034V180.072H244.154V192ZM241.202 186.264L241.226 187.08C241.194 187.304 241.114 187.632 240.986 188.064C240.858 188.48 240.658 188.928 240.386 189.408C240.13 189.888 239.794 190.352 239.378 190.8C238.962 191.232 238.45 191.592 237.842 191.88C237.234 192.152 236.514 192.288 235.682 192.288C235.026 192.288 234.378 192.208 233.738 192.048C233.114 191.888 232.546 191.624 232.034 191.256C231.522 190.872 231.114 190.36 230.81 189.72C230.506 189.08 230.354 188.272 230.354 187.296V180.072H233.474V186.768C233.474 187.536 233.594 188.144 233.834 188.592C234.09 189.024 234.458 189.328 234.938 189.504C235.418 189.68 235.986 189.768 236.642 189.768C237.506 189.768 238.25 189.584 238.874 189.216C239.498 188.832 240.002 188.368 240.386 187.824C240.786 187.28 241.058 186.76 241.202 186.264Z" fill="#FED47E"/>
<path d="M252.803 192.264C251.619 192.264 250.539 192.008 249.563 191.496C248.603 190.968 247.835 190.24 247.259 189.312C246.699 188.368 246.419 187.28 246.419 186.048C246.419 184.784 246.707 183.688 247.283 182.76C247.859 181.832 248.635 181.112 249.611 180.6C250.603 180.072 251.723 179.808 252.971 179.808C254.347 179.808 255.451 180.088 256.283 180.648C257.131 181.192 257.747 181.936 258.131 182.88C258.515 183.824 258.707 184.88 258.707 186.048C258.707 186.752 258.595 187.472 258.371 188.208C258.147 188.928 257.803 189.6 257.339 190.224C256.875 190.832 256.267 191.328 255.515 191.712C254.763 192.08 253.859 192.264 252.803 192.264ZM253.811 189.864C254.755 189.864 255.571 189.704 256.259 189.384C256.947 189.064 257.475 188.616 257.843 188.04C258.211 187.464 258.395 186.8 258.395 186.048C258.395 185.232 258.203 184.544 257.819 183.984C257.451 183.408 256.923 182.976 256.235 182.688C255.563 182.384 254.755 182.232 253.811 182.232C252.483 182.232 251.451 182.584 250.715 183.288C249.979 183.976 249.611 184.896 249.611 186.048C249.611 186.816 249.787 187.488 250.139 188.064C250.491 188.624 250.979 189.064 251.603 189.384C252.243 189.704 252.979 189.864 253.811 189.864ZM258.395 180.072H261.515V192H258.611C258.611 192 258.587 191.848 258.539 191.544C258.507 191.224 258.475 190.824 258.443 190.344C258.411 189.864 258.395 189.392 258.395 188.928V180.072Z" fill="#FED47E"/>
<path d="M270.29 190.176C268.994 190.176 267.85 189.984 266.858 189.6C265.882 189.2 265.122 188.616 264.578 187.848C264.034 187.08 263.762 186.152 263.762 185.064C263.762 183.992 264.026 183.064 264.554 182.28C265.082 181.496 265.834 180.888 266.81 180.456C267.802 180.024 268.962 179.808 270.29 179.808C270.658 179.808 271.01 179.832 271.346 179.88C271.698 179.928 272.042 179.992 272.378 180.072L278.402 180.096V182.448C277.586 182.464 276.754 182.368 275.906 182.16C275.074 181.936 274.338 181.696 273.698 181.44L273.626 181.272C274.17 181.528 274.682 181.848 275.162 182.232C275.642 182.6 276.026 183.032 276.314 183.528C276.618 184.008 276.77 184.568 276.77 185.208C276.77 186.248 276.506 187.144 275.978 187.896C275.45 188.632 274.698 189.2 273.722 189.6C272.762 189.984 271.618 190.176 270.29 190.176ZM274.298 196.92V196.344C274.298 195.608 274.058 195.096 273.578 194.808C273.114 194.52 272.474 194.376 271.658 194.376H267.938C267.218 194.376 266.61 194.32 266.114 194.208C265.634 194.096 265.25 193.936 264.962 193.728C264.674 193.52 264.466 193.272 264.338 192.984C264.21 192.712 264.146 192.416 264.146 192.096C264.146 191.456 264.354 190.976 264.77 190.656C265.186 190.32 265.746 190.096 266.45 189.984C267.154 189.872 267.93 189.848 268.778 189.912L270.29 190.176C269.282 190.208 268.53 190.296 268.034 190.44C267.554 190.568 267.314 190.832 267.314 191.232C267.314 191.472 267.41 191.664 267.602 191.808C267.794 191.936 268.066 192 268.418 192H272.33C273.402 192 274.314 192.112 275.066 192.336C275.834 192.576 276.418 192.968 276.818 193.512C277.218 194.072 277.418 194.832 277.418 195.792V196.92H274.298ZM270.29 187.92C270.978 187.92 271.578 187.808 272.09 187.584C272.618 187.36 273.026 187.04 273.314 186.624C273.602 186.192 273.746 185.68 273.746 185.088C273.746 184.48 273.602 183.96 273.314 183.528C273.026 183.096 272.626 182.768 272.114 182.544C271.602 182.304 270.994 182.184 270.29 182.184C269.602 182.184 268.994 182.304 268.466 182.544C267.938 182.768 267.53 183.096 267.242 183.528C266.954 183.96 266.81 184.48 266.81 185.088C266.81 185.68 266.954 186.192 267.242 186.624C267.53 187.04 267.93 187.36 268.442 187.584C268.97 187.808 269.586 187.92 270.29 187.92Z" fill="#FED47E"/>
<path d="M291.101 188.04H294.125C293.997 188.856 293.653 189.584 293.093 190.224C292.549 190.864 291.805 191.368 290.861 191.736C289.917 192.104 288.765 192.288 287.405 192.288C285.885 192.288 284.541 192.048 283.373 191.568C282.205 191.072 281.293 190.36 280.637 189.432C279.981 188.504 279.653 187.384 279.653 186.072C279.653 184.76 279.973 183.64 280.613 182.712C281.253 181.768 282.141 181.048 283.277 180.552C284.429 180.056 285.773 179.808 287.309 179.808C288.877 179.808 290.181 180.056 291.221 180.552C292.261 181.048 293.029 181.8 293.525 182.808C294.037 183.8 294.253 185.072 294.173 186.624H282.797C282.877 187.232 283.101 187.784 283.469 188.28C283.853 188.776 284.365 189.168 285.005 189.456C285.661 189.744 286.437 189.888 287.333 189.888C288.325 189.888 289.149 189.72 289.805 189.384C290.477 189.032 290.909 188.584 291.101 188.04ZM287.165 182.184C286.013 182.184 285.077 182.44 284.357 182.952C283.637 183.448 283.173 184.064 282.965 184.8H291.077C290.997 184 290.613 183.368 289.925 182.904C289.253 182.424 288.333 182.184 287.165 182.184Z" fill="#FED47E"/>
<path d="M296.015 188.04H298.895C299.071 188.584 299.431 189.032 299.975 189.384C300.535 189.72 301.263 189.888 302.159 189.888C302.767 189.888 303.239 189.832 303.575 189.72C303.911 189.608 304.143 189.448 304.271 189.24C304.399 189.016 304.463 188.768 304.463 188.496C304.463 188.16 304.359 187.904 304.151 187.728C303.943 187.536 303.623 187.384 303.191 187.272C302.759 187.16 302.207 187.056 301.535 186.96C300.863 186.848 300.215 186.712 299.591 186.552C298.967 186.392 298.415 186.184 297.935 185.928C297.455 185.656 297.071 185.32 296.783 184.92C296.511 184.504 296.375 184 296.375 183.408C296.375 182.832 296.511 182.32 296.783 181.872C297.071 181.424 297.463 181.048 297.959 180.744C298.471 180.44 299.063 180.208 299.735 180.048C300.423 179.888 301.159 179.808 301.943 179.808C303.127 179.808 304.111 179.984 304.895 180.336C305.679 180.672 306.263 181.152 306.647 181.776C307.047 182.384 307.247 183.088 307.247 183.888H304.487C304.359 183.296 304.103 182.872 303.719 182.616C303.335 182.344 302.743 182.208 301.943 182.208C301.159 182.208 300.567 182.328 300.167 182.568C299.767 182.808 299.567 183.136 299.567 183.552C299.567 183.888 299.687 184.152 299.927 184.344C300.183 184.52 300.551 184.664 301.031 184.776C301.527 184.888 302.143 185.008 302.879 185.136C303.503 185.264 304.095 185.408 304.655 185.568C305.231 185.728 305.743 185.936 306.191 186.192C306.639 186.432 306.991 186.76 307.247 187.176C307.519 187.576 307.655 188.088 307.655 188.712C307.655 189.48 307.431 190.128 306.983 190.656C306.551 191.184 305.927 191.592 305.111 191.88C304.295 192.152 303.319 192.288 302.183 192.288C301.175 192.288 300.303 192.184 299.567 191.976C298.847 191.752 298.247 191.472 297.767 191.136C297.287 190.784 296.911 190.416 296.639 190.032C296.383 189.632 296.207 189.256 296.111 188.904C296.015 188.552 295.983 188.264 296.015 188.04Z" fill="#FED47E"/>
<path d="M56.9556 215.136V206.472H60.1476V215.472C60.1476 216.496 59.9956 217.392 59.6916 218.16C59.4035 218.928 58.9876 219.576 58.4436 220.104C57.8996 220.632 57.2596 221.064 56.5236 221.4C55.8036 221.72 55.0116 221.952 54.1476 222.096C53.2996 222.24 52.4036 222.312 51.4596 222.312C50.4836 222.312 49.5556 222.24 48.6756 222.096C47.7956 221.952 46.9876 221.72 46.2516 221.4C45.5316 221.064 44.9076 220.632 44.3796 220.104C43.8516 219.576 43.4356 218.928 43.1316 218.16C42.8436 217.392 42.6996 216.496 42.6996 215.472V206.472H45.8916V215.136C45.8916 216.352 46.1316 217.28 46.6116 217.92C47.0916 218.544 47.7476 218.976 48.5796 219.216C49.4276 219.44 50.3876 219.552 51.4596 219.552C52.4996 219.552 53.4276 219.44 54.2436 219.216C55.0756 218.976 55.7316 218.544 56.2116 217.92C56.7076 217.28 56.9556 216.352 56.9556 215.136Z" fill="#FED47E"/>
<path d="M63.4322 210.072H66.5522V222H63.4322V210.072ZM72.0962 209.808C72.8322 209.808 73.5122 209.904 74.1362 210.096C74.7602 210.288 75.3042 210.584 75.7682 210.984C76.2322 211.384 76.5922 211.896 76.8482 212.52C77.1042 213.128 77.2322 213.856 77.2322 214.704V222H74.1122V215.256C74.1122 214.248 73.8642 213.512 73.3682 213.048C72.8882 212.568 72.0962 212.328 70.9922 212.328C70.1602 212.328 69.4082 212.488 68.7362 212.808C68.0642 213.128 67.5202 213.536 67.1042 214.032C66.6882 214.512 66.4482 215.016 66.3842 215.544L66.3602 214.32C66.4402 213.76 66.6242 213.216 66.9122 212.688C67.2002 212.16 67.5842 211.68 68.0642 211.248C68.5602 210.8 69.1442 210.448 69.8162 210.192C70.4882 209.936 71.2482 209.808 72.0962 209.808Z" fill="#FED47E"/>
<path d="M83.6488 204.84V207.576H80.0248V204.84H83.6488ZM80.2648 210.072H83.3848V222H80.2648V210.072Z" fill="#FED47E"/>
<path d="M85.6547 210.072H94.9187V212.496H85.6547V210.072ZM88.7267 206.808H91.8467V222H88.7267V206.808Z" fill="#FED47E"/>
<path d="M107.609 218.04H110.633C110.505 218.856 110.161 219.584 109.601 220.224C109.057 220.864 108.313 221.368 107.369 221.736C106.425 222.104 105.273 222.288 103.913 222.288C102.393 222.288 101.049 222.048 99.8809 221.568C98.7129 221.072 97.8009 220.36 97.1449 219.432C96.4889 218.504 96.1609 217.384 96.1609 216.072C96.1609 214.76 96.4809 213.64 97.1209 212.712C97.7609 211.768 98.6489 211.048 99.7849 210.552C100.937 210.056 102.281 209.808 103.817 209.808C105.385 209.808 106.689 210.056 107.729 210.552C108.769 211.048 109.537 211.8 110.033 212.808C110.545 213.8 110.761 215.072 110.681 216.624H99.3049C99.3849 217.232 99.6089 217.784 99.9769 218.28C100.361 218.776 100.873 219.168 101.513 219.456C102.169 219.744 102.945 219.888 103.841 219.888C104.833 219.888 105.657 219.72 106.313 219.384C106.985 219.032 107.417 218.584 107.609 218.04ZM103.673 212.184C102.521 212.184 101.585 212.44 100.865 212.952C100.145 213.448 99.6809 214.064 99.4729 214.8H107.585C107.505 214 107.121 213.368 106.433 212.904C105.761 212.424 104.841 212.184 103.673 212.184Z" fill="#FED47E"/>
<path d="M118.81 222.264C117.61 222.264 116.522 222.008 115.546 221.496C114.586 220.968 113.826 220.24 113.266 219.312C112.706 218.368 112.426 217.28 112.426 216.048C112.426 214.784 112.698 213.688 113.242 212.76C113.802 211.832 114.562 211.112 115.522 210.6C116.482 210.072 117.578 209.808 118.81 209.808C119.882 209.808 120.794 209.968 121.546 210.288C122.298 210.608 122.906 211.056 123.37 211.632C123.834 212.192 124.17 212.848 124.378 213.6C124.602 214.352 124.714 215.168 124.714 216.048C124.714 216.752 124.602 217.472 124.378 218.208C124.154 218.928 123.81 219.6 123.346 220.224C122.882 220.832 122.274 221.328 121.522 221.712C120.77 222.08 119.866 222.264 118.81 222.264ZM119.818 219.864C120.762 219.864 121.578 219.704 122.266 219.384C122.954 219.064 123.482 218.616 123.85 218.04C124.218 217.464 124.402 216.8 124.402 216.048C124.402 215.232 124.21 214.544 123.826 213.984C123.458 213.408 122.93 212.968 122.242 212.664C121.57 212.36 120.762 212.208 119.818 212.208C118.49 212.208 117.458 212.56 116.722 213.264C115.986 213.968 115.618 214.896 115.618 216.048C115.618 216.816 115.794 217.488 116.146 218.064C116.498 218.624 116.986 219.064 117.61 219.384C118.25 219.704 118.986 219.864 119.818 219.864ZM124.402 205.272H127.522V222H124.618C124.57 221.632 124.522 221.16 124.474 220.584C124.426 219.992 124.402 219.44 124.402 218.928V205.272Z" fill="#FED47E"/>
<path d="M137.082 222V206.472H146.034C148.114 206.472 149.69 206.824 150.762 207.528C151.85 208.216 152.394 209.248 152.394 210.624C152.394 211.504 152.178 212.2 151.746 212.712C151.314 213.208 150.698 213.576 149.898 213.816C149.114 214.056 148.186 214.208 147.114 214.272L147.21 214.104C147.994 214.12 148.73 214.176 149.418 214.272C150.122 214.368 150.738 214.544 151.266 214.8C151.794 215.056 152.21 215.416 152.514 215.88C152.818 216.328 152.97 216.92 152.97 217.656C152.97 218.616 152.714 219.416 152.202 220.056C151.69 220.68 150.978 221.152 150.066 221.472C149.154 221.792 148.098 221.968 146.898 222H137.082ZM140.274 219.36H146.562C147.57 219.36 148.346 219.2 148.89 218.88C149.434 218.544 149.706 218.016 149.706 217.296C149.706 216.768 149.546 216.384 149.226 216.144C148.906 215.904 148.482 215.76 147.954 215.712C147.426 215.648 146.858 215.616 146.25 215.616H140.274V219.36ZM140.274 213.048H145.914C146.922 213.048 147.698 212.904 148.242 212.616C148.786 212.312 149.058 211.8 149.058 211.08C149.058 210.36 148.786 209.856 148.242 209.568C147.698 209.264 146.978 209.112 146.082 209.112H140.274V213.048Z" fill="#FED47E"/>
<path d="M154.321 210.072H157.633L162.793 221.52L160.105 222L154.321 210.072ZM168.913 210.072L160.657 226.8H157.417L160.945 220.224L165.577 210.072H168.913Z" fill="#FED47E"/>
<path d="M195.046 216.408C194.902 217.656 194.462 218.72 193.726 219.6C192.99 220.48 191.99 221.152 190.726 221.616C189.462 222.08 187.958 222.312 186.214 222.312C184.758 222.312 183.422 222.144 182.206 221.808C181.006 221.472 179.966 220.968 179.086 220.296C178.222 219.624 177.55 218.792 177.07 217.8C176.59 216.792 176.35 215.616 176.35 214.272C176.35 212.928 176.59 211.752 177.07 210.744C177.55 209.736 178.222 208.896 179.086 208.224C179.966 207.536 181.006 207.024 182.206 206.688C183.422 206.336 184.758 206.16 186.214 206.16C187.958 206.16 189.462 206.4 190.726 206.88C192.006 207.36 193.014 208.048 193.75 208.944C194.486 209.824 194.918 210.896 195.046 212.16H191.878C191.67 211.488 191.318 210.912 190.822 210.432C190.342 209.936 189.718 209.56 188.95 209.304C188.182 209.048 187.27 208.92 186.214 208.92C184.902 208.92 183.75 209.128 182.758 209.544C181.766 209.944 180.998 210.544 180.454 211.344C179.91 212.128 179.638 213.104 179.638 214.272C179.638 215.424 179.91 216.392 180.454 217.176C180.998 217.96 181.766 218.56 182.758 218.976C183.75 219.376 184.902 219.576 186.214 219.576C187.27 219.576 188.174 219.448 188.926 219.192C189.694 218.936 190.318 218.568 190.798 218.088C191.294 217.608 191.654 217.048 191.878 216.408H195.046Z" fill="#FED47E"/>
<path d="M204.784 222.288C203.28 222.288 201.952 222.048 200.8 221.568C199.664 221.088 198.776 220.392 198.136 219.48C197.496 218.552 197.176 217.416 197.176 216.072C197.176 214.728 197.496 213.592 198.136 212.664C198.776 211.72 199.664 211.008 200.8 210.528C201.952 210.048 203.28 209.808 204.784 209.808C206.288 209.808 207.6 210.048 208.72 210.528C209.856 211.008 210.744 211.72 211.384 212.664C212.024 213.592 212.344 214.728 212.344 216.072C212.344 217.416 212.024 218.552 211.384 219.48C210.744 220.392 209.856 221.088 208.72 221.568C207.6 222.048 206.288 222.288 204.784 222.288ZM204.784 219.888C205.616 219.888 206.36 219.744 207.016 219.456C207.688 219.152 208.216 218.72 208.6 218.16C208.984 217.584 209.176 216.888 209.176 216.072C209.176 215.256 208.984 214.56 208.6 213.984C208.216 213.392 207.697 212.944 207.04 212.64C206.384 212.336 205.632 212.184 204.784 212.184C203.952 212.184 203.2 212.336 202.528 212.64C201.856 212.944 201.32 213.384 200.92 213.96C200.536 214.536 200.344 215.24 200.344 216.072C200.344 216.888 200.536 217.584 200.92 218.16C201.304 218.72 201.832 219.152 202.504 219.456C203.176 219.744 203.936 219.888 204.784 219.888Z" fill="#FED47E"/>
<path d="M220.459 222.264C219.259 222.264 218.171 222.008 217.195 221.496C216.235 220.968 215.475 220.24 214.915 219.312C214.355 218.368 214.075 217.28 214.075 216.048C214.075 214.784 214.347 213.688 214.891 212.76C215.451 211.832 216.211 211.112 217.171 210.6C218.131 210.072 219.227 209.808 220.459 209.808C221.531 209.808 222.443 209.968 223.195 210.288C223.947 210.608 224.555 211.056 225.019 211.632C225.483 212.192 225.819 212.848 226.027 213.6C226.251 214.352 226.363 215.168 226.363 216.048C226.363 216.752 226.251 217.472 226.027 218.208C225.803 218.928 225.459 219.6 224.995 220.224C224.531 220.832 223.923 221.328 223.171 221.712C222.419 222.08 221.515 222.264 220.459 222.264ZM221.467 219.864C222.411 219.864 223.227 219.704 223.915 219.384C224.603 219.064 225.131 218.616 225.499 218.04C225.867 217.464 226.051 216.8 226.051 216.048C226.051 215.232 225.859 214.544 225.475 213.984C225.107 213.408 224.579 212.968 223.891 212.664C223.219 212.36 222.411 212.208 221.467 212.208C220.139 212.208 219.107 212.56 218.371 213.264C217.635 213.968 217.267 214.896 217.267 216.048C217.267 216.816 217.443 217.488 217.795 218.064C218.147 218.624 218.635 219.064 219.259 219.384C219.899 219.704 220.635 219.864 221.467 219.864ZM226.051 205.272H229.171V222H226.267C226.219 221.632 226.171 221.16 226.123 220.584C226.075 219.992 226.051 219.44 226.051 218.928V205.272Z" fill="#FED47E"/>
<path d="M243.406 218.04H246.43C246.302 218.856 245.958 219.584 245.398 220.224C244.854 220.864 244.11 221.368 243.166 221.736C242.222 222.104 241.07 222.288 239.71 222.288C238.19 222.288 236.846 222.048 235.678 221.568C234.51 221.072 233.598 220.36 232.942 219.432C232.286 218.504 231.958 217.384 231.958 216.072C231.958 214.76 232.278 213.64 232.918 212.712C233.558 211.768 234.446 211.048 235.582 210.552C236.734 210.056 238.078 209.808 239.614 209.808C241.182 209.808 242.486 210.056 243.526 210.552C244.566 211.048 245.334 211.8 245.83 212.808C246.342 213.8 246.558 215.072 246.478 216.624H235.102C235.182 217.232 235.406 217.784 235.774 218.28C236.158 218.776 236.67 219.168 237.31 219.456C237.966 219.744 238.742 219.888 239.638 219.888C240.63 219.888 241.454 219.72 242.11 219.384C242.782 219.032 243.214 218.584 243.406 218.04ZM239.47 212.184C238.318 212.184 237.382 212.44 236.662 212.952C235.942 213.448 235.478 214.064 235.27 214.8H243.382C243.302 214 242.918 213.368 242.23 212.904C241.558 212.424 240.638 212.184 239.47 212.184Z" fill="#FED47E"/>
<path d="M255.519 203.928L258.039 204.84L250.719 224.88L248.223 223.968L255.519 203.928Z" fill="#FED47E"/>
<path d="M260.49 211.44L261.666 209.28L269.538 213.744V216.36L261.666 220.824L260.49 218.592L267.114 215.04L260.49 211.44Z" fill="#FED47E"/>
</g>
<defs>
<filter id="filter0_d_624_472" x="0.862427" y="174.84" width="310.792" height="59.96" filterUnits="userSpaceOnUse" color-interpolation-filters="sRGB">
<feFlood flood-opacity="0" result="BackgroundImageFix"/>
<feColorMatrix in="SourceAlpha" type="matrix" values="0 0 0 0 0 0 0 0 0 0 0 0 0 0 0 0 0 0 127 0" result="hardAlpha"/>
<feOffset dy="4"/>
<feGaussianBlur stdDeviation="2"/>
<feComposite in2="hardAlpha" operator="out"/>
<feColorMatrix type="matrix" values="0 0 0 0 0.588235 0 0 0 0 0.301961 0 0 0 0 0.568627 0 0 0 0.3 0"/>
<feBlend mode="normal" in2="BackgroundImageFix" result="effect1_dropShadow_624_472"/>
<feBlend mode="normal" in="SourceGraphic" in2="effect1_dropShadow_624_472" result="shape"/>
</filter>
</defs>
</svg>
